<?xml version="1.0" encoding="UTF-8"?>
<svg xmlns="http://www.w3.org/2000/svg" xmlns:xlink="http://www.w3.org/1999/xlink" width="50px" height="50px" viewBox="0 0 50 50" version="1.1">
<g id="surface1">
<path style=" stroke:none;fill-rule:nonzero;fill:rgb(15.686275%,32.156863%,85.882353%);fill-opacity:1;" d="M 11.648438 20.484375 C 10.15625 20.484375 8.734375 20.78125 7.425781 21.304688 C 8.460938 17.730469 10.101562 14.050781 12.363281 10.492188 C 13.214844 9.15625 14.128906 7.90625 15.074219 6.710938 C 11.410156 8.679688 7.765625 12.066406 4.921875 16.539062 C 1.722656 21.5625 0.1875 26.917969 0.296875 31.40625 C 0.289062 31.554688 0.273438 31.703125 0.273438 31.859375 C 0.273438 33.984375 0.871094 35.96875 1.890625 37.675781 C 1.890625 37.675781 1.890625 37.679688 1.890625 37.679688 C 3.875 41 7.5 43.230469 11.648438 43.230469 C 17.929688 43.230469 23.023438 38.140625 23.023438 31.859375 C 23.023438 25.574219 17.929688 20.484375 11.648438 20.484375 Z M 11.648438 20.484375 "/>
<path style=" stroke:none;fill-rule:nonzero;fill:rgb(15.686275%,32.156863%,85.882353%);fill-opacity:1;" d="M 38.296875 20.484375 C 36.800781 20.484375 35.375 20.78125 34.070312 21.304688 C 35.109375 17.730469 36.742188 14.050781 39.007812 10.492188 C 39.859375 9.15625 40.773438 7.90625 41.71875 6.710938 C 38.054688 8.679688 34.414062 12.066406 31.566406 16.539062 C 28.367188 21.5625 26.835938 26.917969 26.945312 31.40625 C 26.9375 31.554688 26.921875 31.703125 26.921875 31.859375 C 26.921875 33.984375 27.515625 35.96875 28.535156 37.675781 C 28.535156 37.679688 28.535156 37.679688 28.539062 37.679688 C 30.523438 41 34.140625 43.234375 38.296875 43.234375 C 44.578125 43.230469 49.671875 38.140625 49.671875 31.859375 C 49.671875 25.574219 44.578125 20.484375 38.296875 20.484375 Z M 38.296875 20.484375 "/>
</g>
</svg>
