<!DOCTYPE svg PUBLIC "-//W3C//DTD SVG 1.1//EN" "http://www.w3.org/Graphics/SVG/1.1/DTD/svg11.dtd">
<!-- Uploaded to: SVG Repo, www.svgrepo.com, Transformed by: SVG Repo Mixer Tools -->
<svg width="800px" height="800px" viewBox="0 0 1024 1024" class="icon" version="1.1" xmlns="http://www.w3.org/2000/svg" fill="#000000">
<g id="SVGRepo_bgCarrier" stroke-width="0"/>
<g id="SVGRepo_tracerCarrier" stroke-linecap="round" stroke-linejoin="round"/>
<g id="SVGRepo_iconCarrier">
<path d="M678.615835 724.766442c45.162558-45.129793 70.02147-105.095685 70.02147-168.900123v-96.572864h19.327883c13.793783 0 24.988945-11.19209 24.988945-24.988945 0-13.793783-11.195162-24.988945-24.988945-24.988945H748.637305v-21.083847c0-13.793783-11.19209-24.988945-24.988946-24.988945s-24.988945 11.195162-24.988945 24.988945v21.083847h-38.979314V241.002128c0-80.400595-65.207161-145.60366-145.573968-145.603661-80.430288 0-145.637449 65.204089-145.637448 145.603661v168.313437h-47.635241v-21.083847c0-13.793783-11.19209-24.988945-24.988946-24.988945-13.793783 0-24.988945 11.195162-24.988945 24.988945v21.083847h-19.391364c-13.793783 0-24.988945 11.195162-24.988945 24.988945 0 13.796855 11.195162 24.988945 24.988945 24.988945h19.391364v96.572864c0 123.283984 93.904619 225.028493 213.902955 237.552658v85.444254H270.924152c-13.796855 0-24.988945 11.191067-24.988945 24.988946 0 13.796855 11.19209 24.988945 24.988945 24.988945h477.584143c13.793783 0 24.988945-11.191067 24.988945-24.988945 0-13.796855-11.195162-24.988945-24.988945-24.988946H534.737421v-85.444254c54.335546-5.628298 104.77009-29.477659 143.878414-68.652535zM509.7495 744.777257c-104.186475 0-188.91401-84.761323-188.91401-188.910938v-96.572864h47.635241v96.572864c0 80.430288 65.207161 145.604684 145.637449 145.604684 80.366807 0 145.573968-65.174396 145.573968-145.604684v-96.572864h38.979314v96.572864c0 50.430448-19.654503 97.872174-55.377862 133.565841-35.661926 35.690595-83.103652 55.345097-133.5341 55.345097z" fill="#27323A"/>
<path d="M418.447598 459.292431h191.256659v96.572864c0 52.709617-42.884413 95.626794-95.597101 95.626794-52.776169 0-95.659558-42.917177-95.659558-95.626794v-96.572864z" fill="#143bd7"/>
<path d="M466.211848 139.810517h39.305934v51.179932h-51.21372v-44.803174c3.838546-2.408178 7.873678-4.424208 11.907786-6.376758z" fill="#7a71f4"/>
<path d="M593.4982 161.611084c8.655927 8.652855 15.292751 18.741197 20.630266 29.380389h-24.728879v-32.765354c1.303406 1.23583 2.799302 2.115347 4.098613 3.384965z" fill="#c2d4ff"/>
<path d="M407.452093 207.323468h30.519974v51.21372h-36.184107v-17.53506c0-11.648743 2.279169-22.843905 5.664133-33.67866z" fill="#7a71f4"/>
<path d="M401.78796 274.873278h36.184107v51.21372h-36.184107z" fill="#c2d4ff"/>
<path d="M401.78796 342.452781h36.184107v51.179932h-36.184107zM454.304062 274.873278h51.21372v51.21372h-51.21372z" fill="#7a71f4"/>
<path d="M454.304062 207.323468h51.21372v51.21372h-51.21372zM454.304062 342.452781h51.21372v51.179932h-51.21372z" fill="#c2d4ff"/>
<path d="M521.853872 274.873278h51.21372v51.21372h-51.21372z" fill="#7a71f4"/>
<path d="M521.853872 207.323468h51.21372v51.21372h-51.21372zM521.853872 342.452781h51.21372v51.179932h-51.21372z" fill="#c2d4ff"/>
<path d="M626.362871 241.002128v17.53506h-36.963284v-51.21372h31.299151c3.384965 10.834755 5.664134 22.029917 5.664133 33.67866z" fill="#7a71f4"/>
<path d="M589.399587 274.873278h36.963284v51.21372h-36.963284z" fill="#c2d4ff"/>
<path d="M589.399587 342.452781h36.963284v51.179932h-36.963284zM573.067592 145.76441v45.226039h-51.21372v-51.179932h40.085111c3.775065 1.819444 7.546035 3.708513 11.128609 5.953893z" fill="#7a71f4"/>
<path d="M437.972067 158.941815v32.048634h-23.948678c5.337514-10.638169 11.974339-20.727535 20.693747-29.380389 0.975763-1.008527 2.211592-1.691459 3.254931-2.668245z" fill="#c2d4ff"/>
</g>
</svg>